<svg width="34" height="32" viewBox="0 0 34 32" fill="none" xmlns="http://www.w3.org/2000/svg">
<path d="M10.0231 0.278232L12.9075 2.92171C13.9891 3.89562 14.566 5.21737 14.566 6.67825C14.566 8.06955 15.1429 9.3913 16.1524 10.3652L16.5129 10.713L19.83 0.347791" fill="white"/>
<path d="M0.216375 9.53046L4.18238 9.39133C5.62456 9.32177 7.06674 9.8783 8.07627 10.8522C9.0858 11.8261 10.4559 12.3131 11.8981 12.3131H12.4028L7.06675 2.78262" fill="white"/>
<path d="M0.21633 22.748L2.88437 19.9653C3.89389 18.9219 5.26397 18.2958 6.70615 18.2958C8.14834 18.2958 9.4463 17.6697 10.4558 16.6958L10.8164 16.3479L0 13.3566" fill="white"/>
<path d="M10.0233 31.9305L9.80698 28.1044C9.73487 26.7131 10.2396 25.3218 11.2492 24.2783C12.1866 23.3044 12.7635 21.913 12.6913 20.5913V20.1043L2.8845 25.4609" fill="white"/>
<path d="M23.7237 31.6522L20.7673 29.1478C19.6856 28.2435 19.0366 26.9217 18.9645 25.4609C18.8924 24.0695 18.2434 22.8174 17.2339 21.8435L16.8733 21.4956L13.989 32" fill="white"/>
<path d="M33.0979 21.9826L29.1319 22.2609C27.6897 22.4 26.2475 21.9131 25.1659 20.9392C24.0842 20.0348 22.7142 19.5478 21.272 19.6174H20.7672L26.536 28.9392" fill="white"/>
<path d="M32.4495 8.83478L29.9257 11.7565C28.9882 12.8 27.6182 13.4957 26.176 13.5652C24.7338 13.6348 23.4358 14.2609 22.4984 15.3044L22.21 15.6522L33.1706 18.1566" fill="white"/>
<path d="M22.2818 0L22.6424 3.8261C22.7866 5.21741 22.3539 6.60872 21.3444 7.72176C20.407 8.76524 19.9743 10.087 20.0464 11.4783L20.1185 11.9652L29.637 6.19133" fill="white"/>
<path d="M32.4495 8.83478L29.9257 11.7565C28.9882 12.8 27.6182 13.4957 26.176 13.5652C24.7338 13.6348 23.4358 14.2609 22.4984 15.3044L22.21 15.6522L33.1706 18.1566" fill="white"/>
<path d="M10.0231 0.278232L12.9075 2.92171C13.9891 3.89562 14.566 5.21737 14.566 6.67825C14.566 8.06955 15.1429 9.3913 16.1524 10.3652L16.5129 10.713L19.83 0.347791" fill="white"/>
<path d="M0.216375 9.53046L4.18238 9.39133C5.62456 9.32177 7.06674 9.8783 8.07627 10.8522C9.0858 11.8261 10.4559 12.3131 11.8981 12.3131H12.4028L7.06675 2.78262" fill="white"/>
<path d="M0.21633 22.748L2.88437 19.9653C3.89389 18.9219 5.26397 18.2958 6.70615 18.2958C8.14834 18.2958 9.4463 17.6697 10.4558 16.6958L10.8164 16.3479L0 13.3566" fill="white"/>
<path d="M10.0233 31.9305L9.80698 28.1044C9.73487 26.7131 10.2396 25.3218 11.2492 24.2783C12.1866 23.3044 12.7635 21.913 12.6913 20.5913V20.1043L2.8845 25.4609" fill="white"/>
<path d="M23.7237 31.6522L20.7673 29.1478C19.6856 28.2435 19.0366 26.9217 18.9645 25.4609C18.8924 24.0695 18.2434 22.8174 17.2339 21.8435L16.8733 21.4956L13.989 32" fill="white"/>
<path d="M33.0979 21.9826L29.1319 22.2609C27.6897 22.4 26.2475 21.9131 25.1659 20.9392C24.0842 20.0348 22.7142 19.5478 21.272 19.6174H20.7672L26.536 28.9392" fill="white"/>
<path d="M32.4495 8.83478L29.9257 11.7565C28.9882 12.8 27.6182 13.4957 26.176 13.5652C24.7338 13.6348 23.4358 14.2609 22.4984 15.3044L22.21 15.6522L33.1706 18.1566" fill="white"/>
<path d="M22.2818 0L22.6424 3.8261C22.7866 5.21741 22.3539 6.60872 21.3444 7.72176C20.407 8.76524 19.9743 10.087 20.0464 11.4783L20.1185 11.9652L29.637 6.19133" fill="white"/>
<path d="M32.4495 8.83478L29.9257 11.7565C28.9882 12.8 27.6182 13.4957 26.176 13.5652C24.7338 13.6348 23.4358 14.2609 22.4984 15.3044L22.21 15.6522L33.1706 18.1566" fill="white"/>
</svg>
